<svg xmlns="http://www.w3.org/2000/svg" viewBox="0 0 252 48" width="252" height="48"><title>Pwoer FIX (1)</title><defs><clipPath id="cp1"><path d="m13-0.08h23v47.08h-23z"></path></clipPath><clipPath id="cp2"><path d="m0.81 0h47.25v47.17h-47.25z"></path></clipPath></defs><style>		.s0 { fill: #f9ac02 } 		.s1 { fill: #f47e57 } 		.s2 { fill: #ffffff } 	</style><g id="Clip-Path" clip-path="url(#cp1)"><g><path class="s0" d="m30.6 9.6h-10.8l-6.2 18h7.1l-6.1 19.3 20.6-24h-9.2zm2.6-7.6l0.1-0.4c-2.7-1.1-5.7-1.7-8.8-1.7q-0.7 0-1.4 0l-1.6 5-0.9 2.5h10.7l0.5-1.3z"></path></g></g><g id="Clip-Path" clip-path="url(#cp2)"><g><path class="s1" d="m35.7 2.8c2 1 3.8 2.4 5.5 4 4.2 4.3 6.9 10.2 6.9 16.7 0 6.6-2.7 12.5-6.9 16.8-4.3 4.2-10.2 6.9-16.8 6.9-2 0-4-0.3-6-0.8l3.6-4.1 5-5.8-1.9 5.9c5-0.2 9.4-2.2 12.7-5.5 3.4-3.4 5.5-8.1 5.5-13.3 0-5.3-2.1-10-5.5-13.4-0.4-0.4-0.9-0.8-1.3-1.2l-4.3 3.9 1.9-5.6zm-19.4 8.9l2.1-6 0.6-1.7 1.2-3.6c-4.8 0.8-9.1 3.2-12.5 6.5-4.2 4.3-6.9 10.2-6.9 16.7 0 6.5 2.7 12.4 6.9 16.7 1.5 1.5 3.2 2.8 5.1 3.8l1.4-4.6 2.1-6.6-4.3 4.9q-0.4-0.4-0.9-0.9c-3.4-3.4-5.5-8.1-5.5-13.3 0-5.2 2.1-9.9 5.5-13.3q2.1-2.1 4.7-3.5z"></path></g></g><g><g><g><path class="s2" d="m71.1 11.1q3.1 0 5.5 1 2.3 1.1 3.5 3 1.3 1.9 1.3 4.6 0 2.6-1.3 4.5-1.2 2-3.5 3-2.4 1-5.5 1h-4.8v6.5h-5.5v-23.6zm-0.3 12.6q2.5 0.1 3.8-1 1.3-1.1 1.3-3 0-2-1.3-3.1-1.3-1.1-3.8-1.1h-4.4v8.2z"></path></g></g></g><g><g><g><path class="s2" d="m119.7 11.1l-7.7 23.6h-5.9l-5.2-16-5.4 16h-5.8l-7.8-23.6h5.7l5.3 16.6 5.6-16.6h5.1l5.4 16.7 5.5-16.7z"></path></g></g></g><g><g><g><path class="s2" d="m133.1 35.2q-3.7 0-6.7-1.6-2.9-1.6-4.6-4.4-1.7-2.8-1.7-6.3 0-3.5 1.7-6.3 1.7-2.8 4.6-4.4 3-1.5 6.7-1.5 3.7 0 6.6 1.5 3 1.6 4.7 4.4 1.7 2.8 1.7 6.3 0 3.5-1.7 6.3-1.7 2.8-4.7 4.4-2.9 1.6-6.6 1.6zm0-4.7q2.1 0 3.8-1 1.7-0.9 2.6-2.7 1-1.7 1-3.9 0-2.2-1-3.9-0.9-1.7-2.6-2.7-1.7-1-3.8-1-2.1 0-3.8 1-1.7 1-2.7 2.7-0.9 1.7-0.9 3.9 0 2.2 0.9 3.9 1 1.8 2.7 2.7 1.7 1 3.8 1z"></path></g></g></g><g><g><g><path class="s2" d="m166.9 30.3v4.4h-18.4v-23.6h17.9v4.4h-12.4v5.1h11v4.3h-11v5.4z"></path></g></g></g><g><g><g><path class="s2" d="m184.7 34.7l-4.6-6.5h-5v6.5h-5.5v-23.6h10.2q3.2 0 5.5 1 2.3 1.1 3.5 3 1.3 1.9 1.3 4.6 0 2.6-1.3 4.5-1.2 1.9-3.6 2.9l5.4 7.6zm-0.2-15q0-2-1.2-3.1-1.3-1.1-3.8-1.1h-4.5v8.3h4.5q2.5 0 3.8-1.1 1.2-1.1 1.2-3z"></path></g></g></g><g><g><g>			</g></g></g><g><g><g><path class="s2" d="m206.2 15.5v6.2h10.9v4.4h-10.9v8.6h-5.5v-23.6h17.9v4.4z"></path></g></g></g><g><g><g><path class="s2" d="m220.7 11.1h5.4v23.6h-5.4z"></path></g></g></g><g><g><g><path class="s2" d="m245 34.7l-5.7-8.2-5.6 8.2h-6.3l8.7-12-8.3-11.6h6.2l5.5 7.6 5.3-7.6h6l-8.3 11.4 8.8 12.2z"></path></g></g></g></svg>